<svg version="1.1" id="Layer_1" xmlns="http://www.w3.org/2000/svg" xmlns:xlink="http://www.w3.org/1999/xlink" x="0px" y="0px"
	 viewBox="0 0 21 21" style="enable-background:new 0 0 21 21;" xml:space="preserve">
<style type="text/css">
	.st0{fill:#F6F6F6;}
</style>
<path id="mask0_5983_164376_1_" class="st0" d="M18,8.8h-1.6c-0.1-0.5-0.3-0.9-0.5-1.3L17,6.3c0,0,0.1-0.1,0.1-0.2
	c0-0.1,0-0.1,0-0.2s0-0.1,0-0.2c0-0.1-0.1-0.1-0.1-0.2L15.3,4c0,0-0.1-0.1-0.2-0.1c-0.1,0-0.1,0-0.2,0s-0.1,0-0.2,0
	c-0.1,0-0.1,0.1-0.2,0.1l-1.1,1.2c-0.4-0.2-0.8-0.4-1.3-0.5V3c0-0.1-0.1-0.3-0.1-0.4c-0.1-0.1-0.2-0.1-0.4-0.1H9.3
	C9.2,2.5,9.1,2.6,9,2.6C8.9,2.7,8.8,2.9,8.8,3v1.7C8.4,4.8,8,5,7.5,5.2L6.4,4c0,0-0.1-0.1-0.2-0.1c-0.1,0-0.1,0-0.2,0
	c-0.1,0-0.1,0-0.2,0C5.8,3.9,5.7,4,5.7,4L4,5.7c0,0-0.1,0.1-0.1,0.2c0,0.1,0,0.1,0,0.2s0,0.1,0,0.2C3.9,6.3,4,6.3,4,6.4l1.2,1.2
	C5,8,4.8,8.4,4.7,8.8H3C2.9,8.8,2.7,8.9,2.6,9C2.6,9.1,2.5,9.2,2.5,9.3v2.3c0,0.1,0.1,0.3,0.1,0.4c0.1,0.1,0.2,0.1,0.4,0.1h1.6
	c0.1,0.5,0.3,0.9,0.5,1.3L4,14.6c0,0-0.1,0.1-0.1,0.2c0,0.1,0,0.1,0,0.2s0,0.1,0,0.2c0,0.1,0.1,0.1,0.1,0.2L5.7,17
	c0,0,0.1,0.1,0.2,0.1c0.1,0,0.1,0,0.2,0c0.1,0,0.1,0,0.2,0c0.1,0,0.1-0.1,0.2-0.1l1.1-1.2c0.4,0.2,0.8,0.4,1.3,0.5V18
	c0,0.1,0.1,0.3,0.1,0.4s0.2,0.1,0.4,0.1h2.3c0.1,0,0.3-0.1,0.4-0.1c0.1-0.1,0.1-0.2,0.1-0.4v-1.6c0.5-0.1,0.9-0.3,1.4-0.5l1.2,1.2
	c0,0,0.1,0.1,0.2,0.1c0.1,0,0.1,0,0.2,0s0.1,0,0.2,0c0.1,0,0.1-0.1,0.2-0.1l1.7-1.6c0,0,0.1-0.1,0.1-0.2c0-0.1,0-0.1,0-0.2
	s0-0.1,0-0.2c0-0.1-0.1-0.1-0.1-0.2l-1.2-1.1c0.2-0.4,0.4-0.8,0.5-1.3H18c0.1,0,0.3-0.1,0.4-0.1c0.1-0.1,0.1-0.2,0.1-0.4V9.3
	c0-0.1-0.1-0.3-0.1-0.4C18.3,8.9,18.1,8.8,18,8.8z M12.8,10.5c0,0.5-0.1,0.9-0.4,1.3c-0.3,0.4-0.6,0.7-1,0.8
	c-0.4,0.2-0.9,0.2-1.3,0.1c-0.4-0.1-0.9-0.3-1.2-0.6c-0.3-0.3-0.5-0.7-0.6-1.2c-0.1-0.4,0-0.9,0.1-1.3c0.2-0.4,0.5-0.8,0.8-1
	c0.4-0.3,0.8-0.4,1.3-0.4c0.6,0,1.2,0.2,1.6,0.7C12.5,9.3,12.8,9.9,12.8,10.5z"/>
</svg>
